<svg width="20" height="23" viewBox="0 0 20 23" fill="none" xmlns="http://www.w3.org/2000/svg">
    <path d="M10 23C11.375 23 12.5 21.9385 12.5 20.641H7.5C7.5 21.9385 8.625 23 10 23ZM17.5 15.9231V10.0256C17.5 6.40462 15.4625 3.37333 11.875 2.57128V1.76923C11.875 0.790256 11.0375 0 10 0C8.9625 0 8.125 0.790256 8.125 1.76923V2.57128C4.55 3.37333 2.5 6.39282 2.5 10.0256V15.9231L0 18.2821V19.4615H20V18.2821L17.5 15.9231ZM15 17.1026H5V10.0256C5 7.10051 6.8875 4.71795 10 4.71795C13.1125 4.71795 15 7.10051 15 10.0256V17.1026Z" fill="#FFA901"/>
</svg> 