<svg width="35" height="40" viewBox="0 0 35 40" fill="none" xmlns="http://www.w3.org/2000/svg">
    <path d="M17.5 0L9.72222 6.66667L17.5 13.3333V8.33333C25.0036 8.33333 31.1111 13.5667 31.1111 20C31.1111 21.4667 30.7791 22.8668 30.1997 24.1602L33.1467 26.6829C34.3231 24.6679 35 22.4033 35 20C35 11.73 27.1503 5 17.5 5V0ZM1.8533 13.3171C0.67691 15.3321 0 17.5967 0 20C0 28.27 7.84972 35 17.5 35V40L25.2778 33.3333L17.5 26.6667V31.6667C9.99639 31.6667 3.88889 26.4333 3.88889 20C3.88889 18.5333 4.2209 17.1332 4.80035 15.8398L1.8533 13.3171Z" fill="#FFA901"/>
</svg>    