<svg width="14" height="15" viewBox="0 0 14 15" fill="none" xmlns="http://www.w3.org/2000/svg">
    <path d="M10.0057 9.43396H9.37336L9.14923 9.2024C9.93368 8.2247 10.4059 6.9554 10.4059 5.57461C10.4059 2.49571 8.07662 0 5.20297 0C2.32933 0 0 2.49571 0 5.57461C0 8.65352 2.32933 11.1492 5.20297 11.1492C6.49171 11.1492 7.67639 10.6432 8.58891 9.80274L8.80503 10.0429V10.7204L12.8073 15L14 13.7221L10.0057 9.43396ZM5.20297 9.43396C3.20983 9.43396 1.60091 7.71012 1.60091 5.57461C1.60091 3.43911 3.20983 1.71527 5.20297 1.71527C7.19611 1.71527 8.80503 3.43911 8.80503 5.57461C8.80503 7.71012 7.19611 9.43396 5.20297 9.43396Z" fill="black"/>
</svg>